<svg width="512" height="512" viewBox="0 0 512 512" fill="none" xmlns="http://www.w3.org/2000/svg">
  <rect width="512" height="512" rx="96" fill="#6B0F1A"/>
  <rect width="512" height="512" rx="96" fill="url(#grad)"/>
  <defs>
    <linearGradient id="grad" x1="0" y1="0" x2="512" y2="512" gradientUnits="userSpaceOnUse">
      <stop offset="0%" stop-color="#8B1A2A"/>
      <stop offset="100%" stop-color="#4A0A12"/>
    </linearGradient>
  </defs>
  <!-- Wine glass body -->
  <path d="M196 120 H316 L296 230 C292 260 272 278 256 282 C240 278 220 260 216 230 Z" fill="white" fill-opacity="0.92"/>
  <!-- Wine glass stem -->
  <rect x="249" y="282" width="14" height="80" rx="7" fill="white" fill-opacity="0.92"/>
  <!-- Wine glass base -->
  <rect x="206" y="358" width="100" height="14" rx="7" fill="white" fill-opacity="0.92"/>
  <!-- Wine fill (red wine inside glass) -->
  <path d="M210 185 H302 L296 230 C292 260 272 278 256 282 C240 278 220 260 216 230 Z" fill="#C0392B" fill-opacity="0.7"/>
  <!-- Shine on glass -->
  <path d="M208 135 L220 175" stroke="white" stroke-width="6" stroke-linecap="round" opacity="0.4"/>
</svg>
