<svg width="512" height="512" viewBox="0 0 512 512" fill="none" xmlns="http://www.w3.org/2000/svg" role="img" aria-labelledby="title desc">
  <title id="title">MyCellar icon</title>
  <desc id="desc">MyCellar app icon with wine glass and cellar arch.</desc>
  <rect width="512" height="512" rx="104" fill="#2A1215"/>
  <circle cx="256" cy="246" r="166" stroke="#C6A15B" stroke-width="12"/>
  <path d="M171 255C171 176 207 132 256 132C305 132 341 176 341 255C341 307 308 346 256 346C204 346 171 307 171 255Z" fill="#FBF8F3"/>
  <path d="M192 255C192 191 218 155 256 155C294 155 320 191 320 255C320 293 294 323 256 323C218 323 192 293 192 255Z" fill="#7A1724"/>
  <path d="M202 226C219 235 240 240 264 240C283 240 301 237 317 230C312 184 288 155 256 155C226 155 205 181 202 226Z" fill="#C6A15B"/>
  <path d="M256 346V398" stroke="#FBF8F3" stroke-width="22" stroke-linecap="round"/>
  <path d="M213 404H299" stroke="#FBF8F3" stroke-width="22" stroke-linecap="round"/>
  <path d="M159 365C159 297 202 255 256 255C310 255 353 297 353 365" stroke="#C6A15B" stroke-width="15" stroke-linecap="round"/>
</svg>
